<svg width="51.000000" height="40.000000" viewBox="0 0 51 40" fill="none" xmlns="http://www.w3.org/2000/svg" xmlns:xlink="http://www.w3.org/1999/xlink">
	<desc>
			Created with Pixso.
	</desc>
	<defs>
		<clipPath id="clip229_229">
			<rect id="ps-bug 2" rx="-0.500000" width="50.000000" height="39.000000" transform="translate(0.500000 0.500000)" fill="white" fill-opacity="0"/>
		</clipPath>
	</defs>
	<rect id="ps-bug 2" rx="-0.500000" width="50.000000" height="39.000000" transform="translate(0.500000 0.500000)" fill="#FFFFFF" fill-opacity="0"/>
	<g clip-path="url(#clip229_229)">
		<mask id="mask229_233" mask-type="alpha" maskUnits="userSpaceOnUse" x="0.000000" y="0.000000" width="51.000000" height="40.000000">
			<path id="Vector" d="M51 40L51 0L0 0L0 40L51 40Z" fill="#FFFFFF" fill-opacity="1.000000" fill-rule="nonzero"/>
		</mask>
		<g mask="url(#mask229_233)">
			<path id="Fill-1" d="M3.82 34.03C-0.2 32.87 -0.87 30.48 0.96 29.1C2.66 27.82 5.54 26.86 5.54 26.86L17.45 22.55L17.45 27.46L8.88 30.58C7.37 31.13 7.13 31.91 8.37 32.32C9.6 32.73 11.82 32.61 13.34 32.06L17.45 30.54L17.45 34.93C17.19 34.98 16.9 35.03 16.63 35.07C12.52 35.76 8.14 35.47 3.82 34.03ZM28.95 34.54L42.31 29.7C43.83 29.15 44.06 28.37 42.83 27.96C41.6 27.55 39.37 27.66 37.85 28.22L28.95 31.41L28.95 26.33L29.46 26.16C29.46 26.16 32.03 25.23 35.65 24.82C39.27 24.42 43.7 24.88 47.18 26.22C51.1 27.48 51.54 29.33 50.54 30.61C49.54 31.89 47.1 32.8 47.1 32.8L28.95 39.43L28.95 34.54ZM30.51 3.18C37.54 5.64 39.93 8.69 39.93 15.58C39.93 22.28 35.85 24.83 30.67 22.29L30.67 9.79C30.67 8.32 30.41 6.97 29.06 6.58C28.02 6.25 27.37 7.23 27.37 8.69L27.37 40L19.06 37.32L19.06 0C22.6 0.66 27.74 2.24 30.51 3.18ZM49.01 37.15C49.01 37.25 48.98 37.33 48.93 37.37C48.87 37.41 48.78 37.43 48.68 37.43L48.15 37.43L48.15 36.89L48.71 36.89C48.79 36.89 48.85 36.9 48.89 36.92C48.97 36.96 49.01 37.03 49.01 37.15ZM49.39 38.39C49.36 38.37 49.34 38.35 49.33 38.3C49.32 38.27 49.32 38.22 49.31 38.15L49.3 37.91C49.3 37.79 49.28 37.71 49.24 37.65C49.21 37.62 49.17 37.59 49.12 37.56C49.18 37.52 49.23 37.47 49.27 37.42C49.32 37.34 49.34 37.24 49.34 37.12C49.34 36.9 49.25 36.74 49.06 36.65C48.97 36.61 48.85 36.59 48.7 36.59L47.87 36.59L47.83 36.59L47.83 36.63L47.83 38.47L47.83 38.51L47.87 38.51L48.11 38.51L48.15 38.51L48.15 38.47L48.15 37.72L48.67 37.72C48.76 37.72 48.83 37.73 48.87 37.75C48.94 37.78 48.98 37.85 48.98 37.95L48.99 38.26C49 38.34 49 38.39 49.01 38.41C49.01 38.44 49.02 38.47 49.03 38.49L49.04 38.51L49.07 38.51L49.37 38.51L49.41 38.51L49.41 38.47L49.41 38.42L49.41 38.4L49.39 38.39ZM47.14 37.58C47.14 37.2 47.28 36.84 47.55 36.57C47.82 36.3 48.17 36.15 48.55 36.15C48.93 36.15 49.28 36.3 49.55 36.57C49.81 36.84 49.96 37.2 49.96 37.58C49.96 38.37 49.33 39.02 48.55 39.02C48.17 39.02 47.82 38.87 47.55 38.6C47.28 38.33 47.14 37.97 47.14 37.58ZM48.55 39.31C49 39.31 49.43 39.13 49.75 38.8C50.07 38.48 50.25 38.04 50.25 37.58C50.25 37.12 50.07 36.69 49.75 36.36C49.43 36.04 49 35.86 48.55 35.86C47.61 35.86 46.85 36.63 46.85 37.58C46.85 38.04 47.03 38.48 47.35 38.8C47.67 39.13 48.09 39.31 48.55 39.31Z" fill="#FFFFFF" fill-opacity="1.000000" fill-rule="evenodd"/>
		</g>
	</g>
</svg>
